# Blender v2.79 (sub 0) OBJ File: ''
# www.blender.org
mtllib room.mtl
g cube
v 0.000000 3.500000 0.000001
v 2.000000 3.500000 2.000000
v 0.000000 3.500000 2.000000
v 2.000000 3.500000 0.000001
v 0.000000 1.500000 2.000000
v 2.000000 1.500000 2.000000
v 0.000000 1.500000 0.000000
v 2.000000 1.500000 0.000000
v 1.500000 3.000000 0.000000
v 1.000000 2.500000 0.000000
v 0.500000 2.000000 0.000000
v 0.000000 3.000000 1.500000
v 0.000000 2.500000 1.000000
v 0.000000 2.000000 0.500000
v 0.000000 3.000000 2.000000
v 0.000000 2.500000 2.000000
v 0.000000 2.000000 2.000000
v 2.000000 3.000000 0.000000
v 2.000000 2.500000 0.000000
v 2.000000 2.000000 0.000000
v 2.000000 1.500000 1.500000
v 2.000000 1.500000 1.000000
v 2.000000 1.500000 0.500000
v 1.500000 1.500000 1.500000
v 1.000000 1.500000 1.000000
v 0.500000 1.500000 0.500000
v 0.500000 3.500000 0.000001
v 1.000000 3.500000 0.000001
v 1.500000 3.500000 0.000001
v 0.000000 1.500000 1.500000
v 0.000000 1.500000 1.000000
v 0.000000 1.500000 0.500000
v 1.500000 3.000000 2.000000
v 1.000000 2.500000 2.000000
v 0.500000 2.000000 2.000000
v 2.000000 3.500000 1.500001
v 2.000000 3.500000 1.000001
v 2.000000 3.500000 0.500001
v 1.500000 3.500000 2.000000
v 1.000000 3.500000 2.000000
v 0.500000 3.500000 2.000000
v 0.000000 3.500000 0.500001
v 0.000000 3.500000 1.000001
v 0.000000 3.500000 1.500001
v 0.500000 1.500000 2.000000
v 1.000000 1.500000 2.000000
v 1.500000 1.500000 2.000000
v 2.000000 3.000000 2.000000
v 2.000000 2.500000 2.000000
v 2.000000 2.000000 2.000000
v 0.500000 3.500000 0.500001
v 1.000000 3.500000 1.000001
v 1.500000 3.500000 1.500001
v 0.000000 3.000000 0.000000
v 0.000000 2.500000 0.000000
v 0.000000 2.000000 0.000000
v 0.500000 1.500000 0.000000
v 1.000000 1.500000 0.000000
v 1.500000 1.500000 0.000000
v 1.000000 1.500000 1.500000
v 0.500000 1.500000 1.000000
v 0.500000 1.500000 1.500000
v 1.500000 1.500000 0.500000
v 1.000000 1.500000 0.500000
v 1.500000 1.500000 1.000000
v 0.000000 2.000000 1.500000
v 0.000000 2.000000 1.000000
v 0.000000 2.500000 1.500000
v 0.000000 3.000000 1.000000
v 0.000000 2.500000 0.500000
v 0.000000 3.000000 0.500000
v 0.500000 3.000000 0.000000
v 0.500000 2.500000 0.000000
v 1.000000 3.000000 0.000000
v 1.500000 2.500000 0.000000
v 1.000000 2.000000 0.000000
v 1.500000 2.000000 0.000000
v 1.500000 2.000000 2.000000
v 1.000000 2.000000 2.000000
v 1.500000 2.500000 2.000000
v 1.000000 3.000000 2.000000
v 0.500000 2.500000 2.000000
v 0.500000 3.000000 2.000000
v 1.500000 3.500000 1.000001
v 1.000000 3.500000 0.500001
v 1.500000 3.500000 0.500001
v 0.500000 3.500000 1.500001
v 0.500000 3.500000 1.000001
v 1.000000 3.500000 1.500001
v 0.250000 1.750000 0.000000
v 0.000000 1.750000 0.250000
v 0.000000 1.750000 2.000000
v 2.000000 1.750000 0.000000
v 2.000000 1.500000 0.250000
v 0.250000 1.500000 0.250000
v 1.750000 3.500000 0.000001
v 0.000000 1.500000 0.250000
v 0.250000 1.750000 2.000000
v 2.000000 3.500000 0.250001
v 0.250000 3.500000 2.000000
v 0.000000 3.500000 1.750001
v 1.750000 1.500000 2.000000
v 2.000000 1.750000 2.000000
v 1.750000 3.500000 1.750001
v 0.000000 1.750000 0.000000
v 1.750000 1.500000 0.000000
v 1.750000 3.250000 0.000001
v 1.250000 2.750000 0.000000
v 0.750000 2.250000 0.000000
v 0.000000 3.250000 1.750000
v 0.000000 2.750000 1.250000
v 0.000000 2.250000 0.750000
v 0.000000 3.250000 2.000000
v 0.000000 2.750000 2.000000
v 0.000000 2.250000 2.000000
v 2.000000 3.250000 0.000001
v 2.000000 2.750000 0.000000
v 2.000000 2.250000 0.000000
v 2.000000 1.500000 1.750000
v 2.000000 1.500000 1.250000
v 2.000000 1.500000 0.750000
v 1.750000 1.500000 1.750000
v 1.250000 1.500000 1.250000
v 0.750000 1.500000 0.750000
v 0.250000 3.500000 0.000001
v 0.750000 3.500000 0.000001
v 1.250000 3.500000 0.000001
v 0.000000 1.500000 1.750000
v 0.000000 1.500000 1.250000
v 0.000000 1.500000 0.750000
v 1.750000 3.250000 2.000000
v 1.250000 2.750000 2.000000
v 0.750000 2.250000 2.000000
v 2.000000 3.500000 1.750001
v 2.000000 3.500000 1.250001
v 2.000000 3.500000 0.750001
v 1.750000 3.500000 2.000000
v 1.250000 3.500000 2.000000
v 0.750000 3.500000 2.000000
v 0.000000 3.500000 0.250001
v 0.000000 3.500000 0.750001
v 0.000000 3.500000 1.250001
v 0.250000 1.500000 2.000000
v 0.750000 1.500000 2.000000
v 1.250000 1.500000 2.000000
v 2.000000 3.250000 2.000000
v 2.000000 2.750000 2.000000
v 2.000000 2.250000 2.000000
v 0.250000 3.500000 0.250001
v 0.750000 3.500000 0.750001
v 1.250000 3.500000 1.250001
v 0.000000 3.250000 0.000001
v 0.000000 2.750000 0.000000
v 0.000000 2.250000 0.000000
v 0.250000 1.500000 0.000000
v 0.750000 1.500000 0.000000
v 1.250000 1.500000 0.000000
v 1.500000 1.500000 1.750000
v 1.000000 1.500000 1.750000
v 1.000000 1.500000 1.250000
v 0.500000 1.500000 1.750000
v 0.500000 1.500000 0.750000
v 0.500000 1.500000 1.250000
v 1.250000 1.500000 1.500000
v 1.250000 1.500000 1.750000
v 0.750000 1.500000 1.000000
v 0.750000 1.500000 1.250000
v 0.750000 1.500000 1.500000
v 0.750000 1.500000 1.750000
v 0.250000 1.500000 0.500000
v 0.250000 1.500000 0.750000
v 0.250000 1.500000 1.000000
v 0.250000 1.500000 1.250000
v 0.250000 1.500000 1.500000
v 0.250000 1.500000 1.750000
v 1.750000 1.500000 0.250000
v 1.750000 1.500000 0.750000
v 1.250000 1.500000 0.250000
v 1.750000 1.500000 1.250000
v 0.750000 1.500000 0.250000
v 1.250000 1.500000 0.750000
v 1.500000 1.500000 0.250000
v 1.750000 1.500000 0.500000
v 1.000000 1.500000 0.250000
v 1.250000 1.500000 0.500000
v 1.500000 1.500000 0.750000
v 1.750000 1.500000 1.000000
v 0.500000 1.500000 0.250000
v 0.750000 1.500000 0.500000
v 1.000000 1.500000 0.750000
v 1.250000 1.500000 1.000000
v 1.500000 1.500000 1.250000
v 1.750000 1.500000 1.500000
v 0.000000 1.750000 1.750000
v 0.000000 2.250000 1.750000
v 0.000000 1.750000 1.250000
v 0.000000 2.750000 1.750000
v 0.000000 1.750000 0.750000
v 0.000000 2.250000 1.250000
v 0.000000 1.750000 1.500000
v 0.000000 2.000000 1.750000
v 0.000000 1.750000 1.000000
v 0.000000 2.000000 1.250000
v 0.000000 2.250000 1.500000
v 0.000000 2.500000 1.750000
v 0.000000 1.750000 0.500000
v 0.000000 2.000000 0.750000
v 0.000000 2.250000 1.000000
v 0.000000 2.500000 1.250000
v 0.000000 2.750000 1.500000
v 0.000000 3.000000 1.750000
v 0.000000 3.250000 1.500000
v 0.000000 3.250000 1.000000
v 0.000000 2.750000 1.000000
v 0.000000 3.250000 0.500001
v 0.000000 2.250000 0.500000
v 0.000000 2.750000 0.500000
v 0.000000 3.000000 1.250000
v 0.000000 3.250000 1.250000
v 0.000000 2.500000 0.750000
v 0.000000 2.750000 0.750000
v 0.000000 3.000000 0.750000
v 0.000000 3.250000 0.750001
v 0.000000 2.000000 0.250000
v 0.000000 2.250000 0.250000
v 0.000000 2.500000 0.250000
v 0.000000 2.750000 0.250000
v 0.000000 3.000000 0.250000
v 0.000000 3.250000 0.250001
v 0.250000 3.250000 0.000001
v 0.750000 3.250000 0.000001
v 0.250000 2.750000 0.000000
v 1.250000 3.250000 0.000001
v 0.250000 2.250000 0.000000
v 0.750000 2.750000 0.000000
v 0.250000 3.000000 0.000000
v 0.500000 3.250000 0.000001
v 0.250000 2.500000 0.000000
v 0.500000 2.750000 0.000000
v 0.750000 3.000000 0.000000
v 1.000000 3.250000 0.000001
v 0.250000 2.000000 0.000000
v 0.500000 2.250000 0.000000
v 0.750000 2.500000 0.000000
v 1.000000 2.750000 0.000000
v 1.250000 3.000000 0.000000
v 1.500000 3.250000 0.000001
v 1.750000 3.000000 0.000000
v 1.750000 2.500000 0.000000
v 1.250000 2.500000 0.000000
v 1.750000 2.000000 0.000000
v 0.750000 2.000000 0.000000
v 1.250000 2.000000 0.000000
v 1.500000 2.750000 0.000000
v 1.750000 2.750000 0.000000
v 1.000000 2.250000 0.000000
v 1.250000 2.250000 0.000000
v 1.500000 2.250000 0.000000
v 1.750000 2.250000 0.000000
v 0.500000 1.750000 0.000000
v 0.750000 1.750000 0.000000
v 1.000000 1.750000 0.000000
v 1.250000 1.750000 0.000000
v 1.500000 1.750000 0.000000
v 1.750000 1.750000 0.000000
v 1.750000 1.750000 2.000000
v 1.750000 2.250000 2.000000
v 1.250000 1.750000 2.000000
v 1.750000 2.750000 2.000000
v 0.750000 1.750000 2.000000
v 1.250000 2.250000 2.000000
v 1.500000 1.750000 2.000000
v 1.750000 2.000000 2.000000
v 1.000000 1.750000 2.000000
v 1.250000 2.000000 2.000000
v 1.500000 2.250000 2.000000
v 1.750000 2.500000 2.000000
v 0.500000 1.750000 2.000000
v 0.750000 2.000000 2.000000
v 1.000000 2.250000 2.000000
v 1.250000 2.500000 2.000000
v 1.500000 2.750000 2.000000
v 1.750000 3.000000 2.000000
v 1.500000 3.250000 2.000000
v 1.000000 3.250000 2.000000
v 1.000000 2.750000 2.000000
v 0.500000 3.250000 2.000000
v 0.500000 2.250000 2.000000
v 0.500000 2.750000 2.000000
v 1.250000 3.000000 2.000000
v 1.250000 3.250000 2.000000
v 0.750000 2.500000 2.000000
v 0.750000 2.750000 2.000000
v 0.750000 3.000000 2.000000
v 0.750000 3.250000 2.000000
v 0.250000 2.000000 2.000000
v 0.250000 2.250000 2.000000
v 0.250000 2.500000 2.000000
v 0.250000 2.750000 2.000000
v 0.250000 3.000000 2.000000
v 0.250000 3.250000 2.000000
v 1.750000 3.500000 1.500001
v 1.750000 3.500000 1.000001
v 1.250000 3.500000 1.000001
v 1.750000 3.500000 0.500001
v 0.750000 3.500000 0.500001
v 1.250000 3.500000 0.500001
v 1.500000 3.500000 1.250001
v 1.750000 3.500000 1.250001
v 1.000000 3.500000 0.750001
v 1.250000 3.500000 0.750001
v 1.500000 3.500000 0.750001
v 1.750000 3.500000 0.750001
v 0.500000 3.500000 0.250001
v 0.750000 3.500000 0.250001
v 1.000000 3.500000 0.250001
v 1.250000 3.500000 0.250001
v 1.500000 3.500000 0.250001
v 1.750000 3.500000 0.250001
v 0.250000 3.500000 1.750001
v 0.750000 3.500000 1.750001
v 0.250000 3.500000 1.250001
v 1.250000 3.500000 1.750001
v 0.250000 3.500000 0.750001
v 0.750000 3.500000 1.250001
v 0.250000 3.500000 1.500001
v 0.500000 3.500000 1.750001
v 0.250000 3.500000 1.000001
v 0.500000 3.500000 1.250001
v 0.750000 3.500000 1.500001
v 1.000000 3.500000 1.750001
v 0.250000 3.500000 0.500001
v 0.500000 3.500000 0.750001
v 0.750000 3.500000 1.000001
v 1.000000 3.500000 1.250001
v 1.250000 3.500000 1.500001
v 1.500000 3.500000 1.750001
vn 0.0000 0.0000 -1.0000
vn 0.0000 -0.0000 1.0000
vn 1.0000 0.0000 0.0000
vn 0.0000 -1.0000 0.0000
vn 0.0000 1.0000 0.0000
usemtl wall
s off
f 5//1 92//1 98//1
f 5//1 98//1 143//1
f 7//2 155//2 90//2
f 7//2 90//2 105//2
f 7//3 105//3 91//3
f 7//3 91//3 97//3
f 30//3 194//3 128//3
f 31//3 196//3 129//3
f 32//3 198//3 130//3
f 30//3 200//3 194//3
f 66//3 195//3 201//3
f 31//3 202//3 196//3
f 67//3 199//3 203//3
f 66//3 204//3 195//3
f 68//3 197//3 205//3
f 32//3 206//3 198//3
f 14//3 112//3 207//3
f 67//3 208//3 199//3
f 13//3 111//3 209//3
f 68//3 210//3 197//3
f 12//3 110//3 211//3
f 12//3 212//3 110//3
f 13//3 214//3 111//3
f 14//3 216//3 112//3
f 12//3 218//3 212//3
f 69//3 213//3 219//3
f 13//3 220//3 214//3
f 70//3 217//3 221//3
f 69//3 222//3 213//3
f 71//3 215//3 223//3
f 14//3 224//3 216//3
f 56//3 154//3 225//3
f 70//3 226//3 217//3
f 55//3 153//3 227//3
f 71//3 228//3 215//3
f 54//3 152//3 229//3
f 54//2 230//2 152//2
f 55//2 232//2 153//2
f 56//2 234//2 154//2
f 54//2 236//2 230//2
f 72//2 231//2 237//2
f 55//2 238//2 232//2
f 73//2 235//2 239//2
f 72//2 240//2 231//2
f 74//2 233//2 241//2
f 56//2 242//2 234//2
f 11//2 109//2 243//2
f 73//2 244//2 235//2
f 10//2 108//2 245//2
f 74//2 246//2 233//2
f 9//2 107//2 247//2
f 9//2 248//2 107//2
f 10//2 250//2 108//2
f 11//2 252//2 109//2
f 9//2 254//2 248//2
f 75//2 249//2 255//2
f 10//2 256//2 250//2
f 76//2 253//2 257//2
f 75//2 258//2 249//2
f 77//2 251//2 259//2
f 11//2 260//2 252//2
f 57//2 156//2 261//2
f 76//2 262//2 253//2
f 58//2 157//2 263//2
f 77//2 264//2 251//2
f 59//2 106//2 265//2
f 47//1 266//1 102//1
f 46//1 268//1 145//1
f 45//1 270//1 144//1
f 47//1 272//1 266//1
f 78//1 267//1 273//1
f 46//1 274//1 268//1
f 79//1 271//1 275//1
f 78//1 276//1 267//1
f 80//1 269//1 277//1
f 45//1 278//1 270//1
f 35//1 133//1 279//1
f 79//1 280//1 271//1
f 34//1 132//1 281//1
f 80//1 282//1 269//1
f 33//1 131//1 283//1
f 33//1 284//1 131//1
f 34//1 286//1 132//1
f 35//1 288//1 133//1
f 33//1 290//1 284//1
f 81//1 285//1 291//1
f 34//1 292//1 286//1
f 82//1 289//1 293//1
f 81//1 294//1 285//1
f 83//1 287//1 295//1
f 35//1 296//1 288//1
f 17//1 115//1 297//1
f 82//1 298//1 289//1
f 16//1 114//1 299//1
f 83//1 300//1 287//1
f 15//1 113//1 301//1
f 301//1 100//1 41//1
f 301//1 113//1 100//1
f 113//1 3//1 100//1
f 287//1 301//1 41//1
f 287//1 300//1 301//1
f 300//1 15//1 301//1
f 299//1 300//1 83//1
f 299//1 114//1 300//1
f 114//1 15//1 300//1
f 289//1 299//1 83//1
f 289//1 298//1 299//1
f 298//1 16//1 299//1
f 297//1 298//1 82//1
f 297//1 115//1 298//1
f 115//1 16//1 298//1
f 288//1 297//1 82//1
f 288//1 296//1 297//1
f 296//1 17//1 297//1
f 295//1 139//1 40//1
f 295//1 287//1 139//1
f 287//1 41//1 139//1
f 285//1 295//1 40//1
f 285//1 294//1 295//1
f 294//1 83//1 295//1
f 293//1 294//1 81//1
f 293//1 289//1 294//1
f 289//1 83//1 294//1
f 286//1 293//1 81//1
f 286//1 292//1 293//1
f 292//1 82//1 293//1
f 291//1 138//1 39//1
f 291//1 285//1 138//1
f 285//1 40//1 138//1
f 284//1 291//1 39//1
f 284//1 290//1 291//1
f 290//1 81//1 291//1
f 133//1 292//1 34//1
f 133//1 288//1 292//1
f 288//1 82//1 292//1
f 132//1 290//1 33//1
f 132//1 286//1 290//1
f 286//1 81//1 290//1
f 131//1 137//1 2//1
f 131//1 284//1 137//1
f 284//1 39//1 137//1
f 283//1 146//1 48//1
f 283//1 131//1 146//1
f 131//1 2//1 146//1
f 269//1 283//1 48//1
f 269//1 282//1 283//1
f 282//1 33//1 283//1
f 281//1 282//1 80//1
f 281//1 132//1 282//1
f 132//1 33//1 282//1
f 271//1 281//1 80//1
f 271//1 280//1 281//1
f 280//1 34//1 281//1
f 279//1 280//1 79//1
f 279//1 133//1 280//1
f 133//1 34//1 280//1
f 270//1 279//1 79//1
f 270//1 278//1 279//1
f 278//1 35//1 279//1
f 277//1 147//1 49//1
f 277//1 269//1 147//1
f 269//1 48//1 147//1
f 267//1 277//1 49//1
f 267//1 276//1 277//1
f 276//1 80//1 277//1
f 275//1 276//1 78//1
f 275//1 271//1 276//1
f 271//1 80//1 276//1
f 268//1 275//1 78//1
f 268//1 274//1 275//1
f 274//1 79//1 275//1
f 273//1 148//1 50//1
f 273//1 267//1 148//1
f 267//1 49//1 148//1
f 266//1 273//1 50//1
f 266//1 272//1 273//1
f 272//1 78//1 273//1
f 144//1 274//1 46//1
f 144//1 270//1 274//1
f 270//1 79//1 274//1
f 145//1 272//1 47//1
f 145//1 268//1 272//1
f 268//1 78//1 272//1
f 102//1 103//1 6//1
f 102//1 266//1 103//1
f 266//1 50//1 103//1
f 265//2 93//2 20//2
f 265//2 106//2 93//2
f 106//2 8//2 93//2
f 251//2 265//2 20//2
f 251//2 264//2 265//2
f 264//2 59//2 265//2
f 263//2 264//2 77//2
f 263//2 157//2 264//2
f 157//2 59//2 264//2
f 253//2 263//2 77//2
f 253//2 262//2 263//2
f 262//2 58//2 263//2
f 261//2 262//2 76//2
f 261//2 156//2 262//2
f 156//2 58//2 262//2
f 252//2 261//2 76//2
f 252//2 260//2 261//2
f 260//2 57//2 261//2
f 259//2 118//2 19//2
f 259//2 251//2 118//2
f 251//2 20//2 118//2
f 249//2 259//2 19//2
f 249//2 258//2 259//2
f 258//2 77//2 259//2
f 257//2 258//2 75//2
f 257//2 253//2 258//2
f 253//2 77//2 258//2
f 250//2 257//2 75//2
f 250//2 256//2 257//2
f 256//2 76//2 257//2
f 255//2 117//2 18//2
f 255//2 249//2 117//2
f 249//2 19//2 117//2
f 248//2 255//2 18//2
f 248//2 254//2 255//2
f 254//2 75//2 255//2
f 109//2 256//2 10//2
f 109//2 252//2 256//2
f 252//2 76//2 256//2
f 108//2 254//2 9//2
f 108//2 250//2 254//2
f 250//2 75//2 254//2
f 107//2 116//2 4//2
f 107//2 248//2 116//2
f 248//2 18//2 116//2
f 247//2 96//2 29//2
f 247//2 107//2 96//2
f 107//2 4//2 96//2
f 233//2 247//2 29//2
f 233//2 246//2 247//2
f 246//2 9//2 247//2
f 245//2 246//2 74//2
f 245//2 108//2 246//2
f 108//2 9//2 246//2
f 235//2 245//2 74//2
f 235//2 244//2 245//2
f 244//2 10//2 245//2
f 243//2 244//2 73//2
f 243//2 109//2 244//2
f 109//2 10//2 244//2
f 234//2 243//2 73//2
f 234//2 242//2 243//2
f 242//2 11//2 243//2
f 241//2 127//2 28//2
f 241//2 233//2 127//2
f 233//2 29//2 127//2
f 231//2 241//2 28//2
f 231//2 240//2 241//2
f 240//2 74//2 241//2
f 239//2 240//2 72//2
f 239//2 235//2 240//2
f 235//2 74//2 240//2
f 232//2 239//2 72//2
f 232//2 238//2 239//2
f 238//2 73//2 239//2
f 237//2 126//2 27//2
f 237//2 231//2 126//2
f 231//2 28//2 126//2
f 230//2 237//2 27//2
f 230//2 236//2 237//2
f 236//2 72//2 237//2
f 154//2 238//2 55//2
f 154//2 234//2 238//2
f 234//2 73//2 238//2
f 153//2 236//2 54//2
f 153//2 232//2 236//2
f 232//2 72//2 236//2
f 152//2 125//2 1//2
f 152//2 230//2 125//2
f 230//2 27//2 125//2
f 229//3 140//3 42//3
f 229//3 152//3 140//3
f 152//3 1//3 140//3
f 215//3 229//3 42//3
f 215//3 228//3 229//3
f 228//3 54//3 229//3
f 227//3 228//3 71//3
f 227//3 153//3 228//3
f 153//3 54//3 228//3
f 217//3 227//3 71//3
f 217//3 226//3 227//3
f 226//3 55//3 227//3
f 225//3 226//3 70//3
f 225//3 154//3 226//3
f 154//3 55//3 226//3
f 216//3 225//3 70//3
f 216//3 224//3 225//3
f 224//3 56//3 225//3
f 223//3 141//3 43//3
f 223//3 215//3 141//3
f 215//3 42//3 141//3
f 213//3 223//3 43//3
f 213//3 222//3 223//3
f 222//3 71//3 223//3
f 221//3 222//3 69//3
f 221//3 217//3 222//3
f 217//3 71//3 222//3
f 214//3 221//3 69//3
f 214//3 220//3 221//3
f 220//3 70//3 221//3
f 219//3 142//3 44//3
f 219//3 213//3 142//3
f 213//3 43//3 142//3
f 212//3 219//3 44//3
f 212//3 218//3 219//3
f 218//3 69//3 219//3
f 112//3 220//3 13//3
f 112//3 216//3 220//3
f 216//3 70//3 220//3
f 111//3 218//3 12//3
f 111//3 214//3 218//3
f 214//3 69//3 218//3
f 110//3 101//3 3//3
f 110//3 212//3 101//3
f 212//3 44//3 101//3
f 211//3 113//3 15//3
f 211//3 110//3 113//3
f 110//3 3//3 113//3
f 197//3 211//3 15//3
f 197//3 210//3 211//3
f 210//3 12//3 211//3
f 209//3 210//3 68//3
f 209//3 111//3 210//3
f 111//3 12//3 210//3
f 199//3 209//3 68//3
f 199//3 208//3 209//3
f 208//3 13//3 209//3
f 207//3 208//3 67//3
f 207//3 112//3 208//3
f 112//3 13//3 208//3
f 198//3 207//3 67//3
f 198//3 206//3 207//3
f 206//3 14//3 207//3
f 205//3 114//3 16//3
f 205//3 197//3 114//3
f 197//3 15//3 114//3
f 195//3 205//3 16//3
f 195//3 204//3 205//3
f 204//3 68//3 205//3
f 203//3 204//3 66//3
f 203//3 199//3 204//3
f 199//3 68//3 204//3
f 196//3 203//3 66//3
f 196//3 202//3 203//3
f 202//3 67//3 203//3
f 201//3 115//3 17//3
f 201//3 195//3 115//3
f 195//3 16//3 115//3
f 194//3 201//3 17//3
f 194//3 200//3 201//3
f 200//3 66//3 201//3
f 130//3 202//3 31//3
f 130//3 198//3 202//3
f 198//3 67//3 202//3
f 129//3 200//3 30//3
f 129//3 196//3 200//3
f 196//3 66//3 200//3
f 128//3 92//3 5//3
f 128//3 194//3 92//3
f 194//3 17//3 92//3
f 97//3 206//3 32//3
f 97//3 91//3 206//3
f 91//3 14//3 206//3
f 91//3 224//3 14//3
f 91//3 105//3 224//3
f 105//3 56//3 224//3
f 105//2 242//2 56//2
f 105//2 90//2 242//2
f 90//2 11//2 242//2
f 90//2 260//2 11//2
f 90//2 155//2 260//2
f 155//2 57//2 260//2
f 143//1 278//1 45//1
f 143//1 98//1 278//1
f 98//1 35//1 278//1
f 98//1 296//1 35//1
f 98//1 92//1 296//1
f 92//1 17//1 296//1
usemtl light
f 1//4 149//4 140//4
f 1//4 125//4 149//4
f 53//4 302//4 104//4
f 52//4 304//4 151//4
f 51//4 306//4 150//4
f 53//4 308//4 302//4
f 84//4 303//4 309//4
f 52//4 310//4 304//4
f 85//4 307//4 311//4
f 84//4 312//4 303//4
f 86//4 305//4 313//4
f 51//4 314//4 306//4
f 27//4 126//4 315//4
f 85//4 316//4 307//4
f 28//4 127//4 317//4
f 86//4 318//4 305//4
f 29//4 96//4 319//4
f 44//4 320//4 101//4
f 43//4 322//4 142//4
f 42//4 324//4 141//4
f 44//4 326//4 320//4
f 87//4 321//4 327//4
f 43//4 328//4 322//4
f 88//4 325//4 329//4
f 87//4 330//4 321//4
f 89//4 323//4 331//4
f 42//4 332//4 324//4
f 51//4 150//4 333//4
f 88//4 334//4 325//4
f 52//4 151//4 335//4
f 89//4 336//4 323//4
f 53//4 104//4 337//4
f 337//4 137//4 39//4
f 337//4 104//4 137//4
f 104//4 2//4 137//4
f 323//4 337//4 39//4
f 323//4 336//4 337//4
f 336//4 53//4 337//4
f 335//4 336//4 89//4
f 335//4 151//4 336//4
f 151//4 53//4 336//4
f 325//4 335//4 89//4
f 325//4 334//4 335//4
f 334//4 52//4 335//4
f 333//4 334//4 88//4
f 333//4 150//4 334//4
f 150//4 52//4 334//4
f 324//4 333//4 88//4
f 324//4 332//4 333//4
f 332//4 51//4 333//4
f 331//4 138//4 40//4
f 331//4 323//4 138//4
f 323//4 39//4 138//4
f 321//4 331//4 40//4
f 321//4 330//4 331//4
f 330//4 89//4 331//4
f 329//4 330//4 87//4
f 329//4 325//4 330//4
f 325//4 89//4 330//4
f 322//4 329//4 87//4
f 322//4 328//4 329//4
f 328//4 88//4 329//4
f 327//4 139//4 41//4
f 327//4 321//4 139//4
f 321//4 40//4 139//4
f 320//4 327//4 41//4
f 320//4 326//4 327//4
f 326//4 87//4 327//4
f 141//4 328//4 43//4
f 141//4 324//4 328//4
f 324//4 88//4 328//4
f 142//4 326//4 44//4
f 142//4 322//4 326//4
f 322//4 87//4 326//4
f 101//4 100//4 3//4
f 101//4 320//4 100//4
f 320//4 41//4 100//4
f 319//4 99//4 38//4
f 319//4 96//4 99//4
f 96//4 4//4 99//4
f 305//4 319//4 38//4
f 305//4 318//4 319//4
f 318//4 29//4 319//4
f 317//4 318//4 86//4
f 317//4 127//4 318//4
f 127//4 29//4 318//4
f 307//4 317//4 86//4
f 307//4 316//4 317//4
f 316//4 28//4 317//4
f 315//4 316//4 85//4
f 315//4 126//4 316//4
f 126//4 28//4 316//4
f 306//4 315//4 85//4
f 306//4 314//4 315//4
f 314//4 27//4 315//4
f 313//4 136//4 37//4
f 313//4 305//4 136//4
f 305//4 38//4 136//4
f 303//4 313//4 37//4
f 303//4 312//4 313//4
f 312//4 86//4 313//4
f 311//4 312//4 84//4
f 311//4 307//4 312//4
f 307//4 86//4 312//4
f 304//4 311//4 84//4
f 304//4 310//4 311//4
f 310//4 85//4 311//4
f 309//4 135//4 36//4
f 309//4 303//4 135//4
f 303//4 37//4 135//4
f 302//4 309//4 36//4
f 302//4 308//4 309//4
f 308//4 84//4 309//4
f 150//4 310//4 52//4
f 150//4 306//4 310//4
f 306//4 85//4 310//4
f 151//4 308//4 53//4
f 151//4 304//4 308//4
f 304//4 84//4 308//4
f 104//4 134//4 2//4
f 104//4 302//4 134//4
f 302//4 36//4 134//4
f 149//4 314//4 51//4
f 149//4 125//4 314//4
f 125//4 27//4 314//4
f 140//4 332//4 42//4
f 140//4 149//4 332//4
f 149//4 51//4 332//4
usemtl floor
f 7//5 95//5 155//5
f 7//5 97//5 95//5
f 24//5 158//5 122//5
f 25//5 160//5 123//5
f 26//5 162//5 124//5
f 24//5 164//5 158//5
f 60//5 159//5 165//5
f 25//5 166//5 160//5
f 61//5 163//5 167//5
f 60//5 168//5 159//5
f 62//5 161//5 169//5
f 26//5 170//5 162//5
f 32//5 130//5 171//5
f 61//5 172//5 163//5
f 31//5 129//5 173//5
f 62//5 174//5 161//5
f 30//5 128//5 175//5
f 59//5 176//5 106//5
f 58//5 178//5 157//5
f 57//5 180//5 156//5
f 59//5 182//5 176//5
f 63//5 177//5 183//5
f 58//5 184//5 178//5
f 64//5 181//5 185//5
f 63//5 186//5 177//5
f 65//5 179//5 187//5
f 57//5 188//5 180//5
f 26//5 124//5 189//5
f 64//5 190//5 181//5
f 25//5 123//5 191//5
f 65//5 192//5 179//5
f 24//5 122//5 193//5
f 193//5 119//5 21//5
f 193//5 122//5 119//5
f 122//5 6//5 119//5
f 179//5 193//5 21//5
f 179//5 192//5 193//5
f 192//5 24//5 193//5
f 191//5 192//5 65//5
f 191//5 123//5 192//5
f 123//5 24//5 192//5
f 181//5 191//5 65//5
f 181//5 190//5 191//5
f 190//5 25//5 191//5
f 189//5 190//5 64//5
f 189//5 124//5 190//5
f 124//5 25//5 190//5
f 180//5 189//5 64//5
f 180//5 188//5 189//5
f 188//5 26//5 189//5
f 187//5 120//5 22//5
f 187//5 179//5 120//5
f 179//5 21//5 120//5
f 177//5 187//5 22//5
f 177//5 186//5 187//5
f 186//5 65//5 187//5
f 185//5 186//5 63//5
f 185//5 181//5 186//5
f 181//5 65//5 186//5
f 178//5 185//5 63//5
f 178//5 184//5 185//5
f 184//5 64//5 185//5
f 183//5 121//5 23//5
f 183//5 177//5 121//5
f 177//5 22//5 121//5
f 176//5 183//5 23//5
f 176//5 182//5 183//5
f 182//5 63//5 183//5
f 156//5 184//5 58//5
f 156//5 180//5 184//5
f 180//5 64//5 184//5
f 157//5 182//5 59//5
f 157//5 178//5 182//5
f 178//5 63//5 182//5
f 106//5 94//5 8//5
f 106//5 176//5 94//5
f 176//5 23//5 94//5
f 175//5 143//5 45//5
f 175//5 128//5 143//5
f 128//5 5//5 143//5
f 161//5 175//5 45//5
f 161//5 174//5 175//5
f 174//5 30//5 175//5
f 173//5 174//5 62//5
f 173//5 129//5 174//5
f 129//5 30//5 174//5
f 163//5 173//5 62//5
f 163//5 172//5 173//5
f 172//5 31//5 173//5
f 171//5 172//5 61//5
f 171//5 130//5 172//5
f 130//5 31//5 172//5
f 162//5 171//5 61//5
f 162//5 170//5 171//5
f 170//5 32//5 171//5
f 169//5 144//5 46//5
f 169//5 161//5 144//5
f 161//5 45//5 144//5
f 159//5 169//5 46//5
f 159//5 168//5 169//5
f 168//5 62//5 169//5
f 167//5 168//5 60//5
f 167//5 163//5 168//5
f 163//5 62//5 168//5
f 160//5 167//5 60//5
f 160//5 166//5 167//5
f 166//5 61//5 167//5
f 165//5 145//5 47//5
f 165//5 159//5 145//5
f 159//5 46//5 145//5
f 158//5 165//5 47//5
f 158//5 164//5 165//5
f 164//5 60//5 165//5
f 124//5 166//5 25//5
f 124//5 162//5 166//5
f 162//5 61//5 166//5
f 123//5 164//5 24//5
f 123//5 160//5 164//5
f 160//5 60//5 164//5
f 122//5 102//5 6//5
f 122//5 158//5 102//5
f 158//5 47//5 102//5
f 95//5 170//5 26//5
f 95//5 97//5 170//5
f 97//5 32//5 170//5
f 155//5 188//5 57//5
f 155//5 95//5 188//5
f 95//5 26//5 188//5
